<?xml version="1.0" standalone="no"?>
<!DOCTYPE svg PUBLIC "-//W3C//DTD SVG 20010904//EN"
 "http://www.w3.org/TR/2001/REC-SVG-20010904/DTD/svg10.dtd">
<svg version="1.0" xmlns="http://www.w3.org/2000/svg"
 width="510.000000pt" height="510.000000pt" viewBox="0 0 510.000000 510.000000"
 preserveAspectRatio="xMidYMid meet">
<metadata>
Created by potrace 1.11, written by Peter Selinger 2001-2013
</metadata>
<g transform="translate(0.000000,510.000000) scale(0.100000,-0.100000)"
fill="#000000" stroke="none">
<path d="M1365 4270 c3 -4 -12 -10 -33 -12 -20 -3 -71 -20 -112 -37 -96 -40
-180 -119 -223 -210 -28 -60 -30 -67 -24 -155 4 -51 15 -114 26 -145 24 -64
105 -173 146 -197 17 -9 39 -25 50 -35 11 -9 44 -30 73 -46 30 -15 66 -34 80
-42 24 -13 91 -24 137 -23 23 0 89 9 93 12 1 2 5 3 10 4 4 1 12 5 19 9 6 4 19
4 29 0 11 -4 15 -3 11 4 -7 12 68 27 84 18 5 -4 9 -1 9 5 0 20 31 23 51 4 25
-22 50 -27 42 -8 -3 8 0 14 6 14 6 0 11 -6 11 -12 0 -9 4 -8 10 2 5 8 10 10
10 5 0 -6 -6 -17 -12 -24 -11 -11 -10 -12 1 -6 10 6 12 2 6 -16 -6 -21 -5 -22
6 -9 8 8 13 13 12 11 -6 -10 19 -41 32 -41 17 0 20 -16 6 -24 -5 -4 -12 0 -15
6 -3 7 -3 2 0 -12 4 -14 8 -27 11 -30 7 -8 22 23 16 34 -4 5 1 7 12 2 14 -5
15 -4 7 7 -7 8 -7 18 -2 27 7 11 10 12 10 2 0 -7 5 -10 12 -6 7 4 8 3 4 -4 -4
-7 -2 -12 3 -12 6 0 11 -5 11 -11 0 -5 -5 -7 -12 -3 -7 4 -8 3 -4 -4 4 -7 15
-8 30 -2 13 5 28 6 32 2 4 -4 0 5 -9 20 -19 30 -22 53 -7 43 6 -4 8 -10 5 -15
-3 -4 6 -3 20 3 14 7 25 16 25 20 0 5 -4 6 -9 3 -13 -8 -8 19 7 36 6 8 9 18 5
21 -3 4 -3 7 2 7 4 0 13 -7 20 -16 11 -15 12 -15 12 0 0 9 -5 16 -10 16 -5 0
-4 7 3 15 17 20 5 19 -19 -2 -11 -9 -18 -20 -15 -25 3 -4 0 -8 -5 -8 -17 0
-13 15 11 46 20 25 20 27 4 21 -16 -6 -17 -5 -6 8 7 8 17 12 23 8 6 -3 7 -1 3
5 -4 7 -13 12 -20 12 -10 0 -15 27 -20 95 -7 88 -29 176 -67 260 -15 33 -101
156 -136 195 -13 14 -23 28 -23 31 0 15 -158 100 -229 123 -58 19 -243 47
-236 36z m130 -210 c4 -6 1 -9 -6 -8 -6 2 -14 -3 -17 -11 -2 -8 0 -11 5 -8 5
3 10 -3 10 -14 1 -11 -3 -19 -9 -17 -15 5 -19 40 -6 55 13 16 15 16 23 3z
m337 -609 c-8 -4 -13 -11 -13 -15 4 -25 0 -29 -15 -14 -20 20 -11 38 19 38 16
0 18 -3 9 -9z m183 -121 c3 -5 1 -10 -4 -10 -6 0 -11 5 -11 10 0 6 2 10 4 10
3 0 8 -4 11 -10z"/>
<path d="M3590 4220 c-55 -12 -168 -73 -249 -134 -41 -30 -82 -58 -93 -62 -10
-3 -16 -10 -13 -15 4 -5 3 -9 -2 -9 -4 0 -19 -10 -33 -21 -14 -11 -18 -18 -10
-14 10 4 9 1 -2 -8 -10 -8 -18 -24 -18 -36 0 -11 -9 -30 -19 -40 -13 -13 -16
-22 -9 -29 6 -6 5 -12 -3 -17 -8 -5 -10 -4 -5 3 4 7 2 12 -3 12 -14 0 -14 -6
-1 -31 8 -15 7 -23 -5 -35 -9 -10 -13 -24 -10 -36 8 -24 -11 -48 -35 -43 -10
2 -21 -3 -24 -11 -3 -9 -1 -12 4 -9 5 3 19 8 30 10 16 3 20 -2 20 -26 0 -16
-5 -29 -11 -29 -8 0 -8 -4 0 -14 9 -11 8 -17 -3 -29 -8 -8 -13 -17 -10 -20 3
-3 7 -22 9 -43 2 -29 -2 -42 -16 -52 -19 -13 -17 -38 2 -26 5 3 7 10 4 15 -4
5 -2 9 3 9 8 0 27 -74 23 -92 0 -5 4 -8 9 -8 6 0 10 -5 10 -11 0 -5 -5 -7 -12
-3 -7 4 -8 3 -4 -4 4 -7 15 -8 30 -2 13 5 27 6 31 2 4 -4 11 -8 16 -8 5 -1 14
-2 19 -3 6 0 10 -8 10 -18 0 -12 7 -8 25 13 17 19 25 24 26 14 0 -9 4 -5 9 8
9 21 30 31 30 14 0 -5 6 -9 13 -9 8 0 14 6 14 13 0 7 -4 11 -9 8 -4 -3 -8 2
-8 10 0 8 5 18 10 21 6 4 8 11 5 16 -8 13 9 11 22 -2 6 -6 32 -16 59 -23 27
-7 48 -17 47 -23 -1 -5 14 -8 33 -7 19 2 34 -1 34 -6 0 -8 258 -7 294 2 10 2
24 11 30 20 6 8 17 13 24 11 6 -3 12 0 12 6 0 6 7 8 15 5 8 -4 30 6 49 22 19
16 47 38 61 49 15 11 32 26 38 33 7 7 21 23 32 35 11 12 27 36 35 52 8 17 17
32 20 35 26 26 31 144 11 263 -13 80 -61 170 -117 220 -43 38 -137 76 -214 87
-69 10 -184 10 -230 0z m96 -182 c4 -6 3 -8 -3 -5 -6 4 -13 0 -16 -8 -4 -9 -1
-12 9 -8 9 3 14 -1 14 -12 0 -12 -5 -15 -16 -11 -9 3 -20 6 -25 6 -5 0 -9 9
-9 21 0 11 5 17 10 14 6 -3 10 -1 10 4 0 15 17 14 26 -1z"/>
<path d="M3066 3758 c3 -5 10 -6 15 -3 13 9 11 12 -6 12 -8 0 -12 -4 -9 -9z"/>
<path d="M2896 3665 c-3 -8 -1 -15 4 -15 6 0 10 7 10 15 0 8 -2 15 -4 15 -2 0
-6 -7 -10 -15z"/>
<path d="M3075 3671 c-6 -11 13 -26 22 -17 4 3 1 6 -6 6 -7 0 -9 5 -6 10 3 6
4 10 1 10 -3 0 -7 -4 -11 -9z"/>
<path d="M3080 3610 c-9 -6 -10 -10 -3 -10 6 0 15 5 18 10 8 12 4 12 -15 0z"/>
<path d="M2455 3521 c-3 -5 -2 -12 3 -15 5 -3 9 1 9 9 0 17 -3 19 -12 6z"/>
<path d="M2349 3497 c6 -8 7 -18 3 -22 -4 -5 -1 -5 6 -1 10 6 10 11 1 22 -6 8
-14 14 -16 14 -3 0 0 -6 6 -13z"/>
<path d="M2117 3489 c7 -7 15 -10 18 -7 3 3 -2 9 -12 12 -14 6 -15 5 -6 -5z"/>
<path d="M2070 3410 c-12 -7 -10 -9 7 -7 12 0 19 5 17 9 -6 10 -6 10 -24 -2z"/>
<path d="M2295 3400 c-3 -5 -1 -10 4 -10 6 0 11 5 11 10 0 6 -2 10 -4 10 -3 0
-8 -4 -11 -10z"/>
<path d="M3370 3396 c0 -2 8 -10 18 -17 15 -13 16 -12 3 4 -13 16 -21 21 -21
13z"/>
<path d="M2075 3339 c3 -16 0 -19 -13 -14 -9 3 -13 3 -9 -1 4 -4 2 -12 -3 -19
-7 -8 -5 -12 5 -12 8 0 12 4 9 9 -3 4 2 8 11 8 10 0 13 -5 9 -12 -5 -9 -2 -9
9 1 9 7 17 19 17 25 0 6 -5 4 -10 -4 -9 -13 -10 -13 -11 0 -1 8 -1 21 0 28 1
6 -3 12 -8 12 -5 0 -8 -9 -6 -21z"/>
<path d="M1873 3343 c4 -3 2 -12 -5 -20 -8 -11 -7 -12 6 -7 18 7 22 34 4 34
-6 0 -8 -3 -5 -7z"/>
<path d="M3179 3333 c-13 -16 -12 -17 4 -4 16 13 21 21 13 21 -2 0 -10 -8 -17
-17z"/>
<path d="M3495 3340 c-3 -5 -1 -10 4 -10 6 0 11 5 11 10 0 6 -2 10 -4 10 -3 0
-8 -4 -11 -10z"/>
<path d="M1970 3279 c0 -5 5 -7 10 -4 6 3 10 8 10 11 0 2 -4 4 -10 4 -5 0 -10
-5 -10 -11z"/>
<path d="M2031 3273 c8 -13 16 -18 20 -12 4 7 8 5 12 -4 7 -18 -26 -60 -39
-49 -4 4 -2 -1 5 -10 7 -10 18 -15 23 -12 6 4 14 1 18 -6 6 -10 15 -7 35 12
18 17 21 25 11 25 -8 0 -13 -4 -10 -9 3 -4 3 -8 0 -8 -2 0 -13 -3 -23 -7 -15
-6 -16 -4 -5 9 7 9 9 24 5 34 -6 17 -5 18 12 4 17 -13 18 -13 10 0 -6 8 -10
18 -10 22 0 3 -4 10 -9 15 -5 4 -6 3 -2 -4 3 -6 2 -14 -4 -18 -5 -3 -10 1 -10
10 0 11 -5 15 -14 12 -7 -3 -19 0 -26 6 -9 8 -8 5 1 -10z m49 -53 c0 -5 -10
-15 -22 -21 -23 -12 -23 -12 -4 10 21 23 26 26 26 11z"/>
<path d="M2110 3281 c0 -6 9 -9 19 -8 11 0 17 5 15 9 -7 11 -34 10 -34 -1z"/>
<path d="M1990 3265 c-11 -13 -10 -14 4 -9 9 3 16 10 16 15 0 13 -6 11 -20 -6z"/>
<path d="M1950 3261 c0 -6 4 -13 10 -16 6 -3 7 1 4 9 -7 18 -14 21 -14 7z"/>
<path d="M2275 3220 c-4 -6 -1 -9 7 -8 7 2 12 -3 10 -10 -1 -8 2 -11 8 -7 8 5
7 11 -1 21 -14 17 -16 17 -24 4z"/>
<path d="M2230 3206 c0 -8 -9 -21 -20 -29 -11 -8 -17 -17 -13 -20 3 -4 -5 -7
-19 -7 -13 0 -28 3 -32 7 -10 11 -37 12 -30 2 3 -5 10 -6 16 -3 6 4 6 -2 -1
-15 -7 -12 -8 -21 -2 -21 5 0 12 6 14 13 4 9 6 9 6 -1 1 -18 -42 -59 -56 -55
-7 3 -9 -4 -6 -17 4 -15 9 -18 18 -10 10 8 15 8 21 -1 4 -8 3 -9 -4 -5 -7 4
-12 2 -12 -3 0 -6 5 -11 11 -11 5 0 8 -4 5 -8 -2 -4 -1 -14 4 -22 6 -10 8 -1
5 27 -5 49 5 62 22 27 6 -13 7 -22 2 -18 -8 4 -11 -18 -11 -71 0 -34 2 -38 17
-25 12 10 15 10 16 -1 1 -8 3 -24 4 -37 1 -12 0 -20 -4 -16 -6 5 -7 9 -10 35
0 5 -5 8 -11 4 -5 -3 -16 7 -25 22 -13 23 -15 24 -10 5 4 -12 8 -38 10 -57 3
-34 12 -50 52 -87 12 -12 20 -24 18 -28 -3 -4 5 -10 16 -13 12 -3 18 -10 14
-16 -3 -6 0 -11 8 -11 8 0 20 -7 27 -15 10 -12 9 -15 -4 -15 -14 0 -15 -2 -4
-14 9 -10 15 -11 20 -2 5 7 8 5 8 -6 0 -10 5 -18 11 -18 6 0 8 -7 5 -16 -3 -8
-2 -12 4 -9 6 3 10 1 10 -4 0 -6 7 -11 15 -11 8 0 15 -9 15 -21 0 -11 4 -18 9
-15 13 8 20 -28 9 -48 -11 -20 -4 -21 16 0 15 14 16 13 16 -10 0 -14 5 -26 11
-26 6 0 9 -9 6 -20 -3 -10 1 -24 9 -31 8 -6 14 -19 14 -28 0 -9 20 -39 44 -66
45 -52 66 -95 46 -95 -6 0 -16 -14 -22 -32 l-11 -32 -9 25 -9 24 -20 -25 c-15
-19 -21 -22 -28 -12 -6 11 -9 10 -15 -3 -3 -9 -10 -14 -15 -10 -11 6 -26 -32
-22 -60 1 -11 -2 -16 -6 -10 -4 6 -17 11 -27 13 -17 3 -18 2 -3 -13 13 -13 14
-20 5 -40 -6 -13 -16 -22 -21 -18 -7 4 -8 -1 -3 -13 4 -10 4 -15 0 -11 -4 4
-13 2 -21 -5 -11 -8 -12 -7 -7 6 3 9 2 16 -4 16 -8 0 -22 -22 -22 -35 0 -9 40
-11 44 -1 3 8 5 8 5 -1 1 -6 -4 -15 -10 -18 -15 -10 -61 4 -54 15 9 15 -3 12
-32 -7 -19 -13 -25 -14 -19 -4 6 10 5 12 -2 7 -7 -4 -12 -13 -12 -21 0 -7 -9
-17 -20 -20 -11 -3 -20 -10 -20 -15 0 -4 -11 -15 -25 -24 -14 -9 -25 -12 -25
-7 0 5 10 13 23 17 21 7 21 7 2 14 -22 9 -49 -15 -38 -33 3 -6 1 -7 -4 -4 -9
6 -88 -39 -129 -72 -8 -7 -11 -2 -11 15 0 21 2 23 15 12 13 -11 14 -11 7 1 -5
10 -4 12 3 7 7 -4 19 -3 29 2 13 8 7 10 -24 9 -28 -1 -44 -7 -53 -20 -6 -10
-7 -16 -1 -13 5 4 9 -2 8 -14 -1 -21 -17 -29 -17 -8 0 6 -3 8 -7 4 -4 -3 -13
4 -20 16 -8 15 -12 18 -13 8 0 -13 -1 -13 -10 0 -7 12 -10 12 -10 1 0 -8 -6
-11 -17 -7 -10 4 -14 4 -11 0 12 -11 -17 -32 -43 -30 -13 0 -31 10 -40 20 -13
16 -16 16 -16 3 0 -8 11 -21 24 -28 30 -16 29 -26 -3 -26 -14 0 -21 2 -15 6 6
4 3 11 -9 19 -16 10 -18 9 -13 -5 5 -12 3 -14 -8 -8 -12 7 -12 6 1 -11 8 -10
10 -16 5 -11 -4 4 -17 0 -27 -10 -10 -9 -21 -13 -25 -10 -3 4 -1 7 6 7 7 0 9
5 6 10 -3 6 -1 10 6 10 7 0 9 3 6 7 -4 3 -2 12 4 19 8 10 5 12 -16 8 -19 -3
-26 -1 -22 8 2 7 12 12 22 10 9 -2 14 1 11 6 -3 6 1 13 10 16 10 4 13 2 8 -7
-4 -6 4 0 19 16 14 15 33 27 42 27 8 0 15 7 15 15 0 8 6 15 14 15 8 0 17 6 19
13 4 9 8 8 17 -3 10 -13 11 -13 7 1 -3 10 10 23 42 39 25 14 49 29 53 35 4 5
8 6 8 1 0 -5 9 -1 19 8 11 10 24 15 29 12 5 -3 15 1 22 9 7 8 16 12 21 9 5 -3
9 -2 9 3 0 11 50 32 84 35 31 3 47 25 26 38 -6 4 -25 1 -42 -7 -16 -8 -38 -13
-49 -10 -10 3 -17 1 -13 -4 5 -8 -17 -14 -39 -10 -5 1 -5 -4 -1 -10 5 -9 2
-10 -9 -6 -10 4 -16 2 -14 -6 1 -7 -8 -12 -20 -11 -13 0 -21 -2 -18 -4 6 -7
-66 -51 -83 -52 -8 0 -10 5 -6 13 5 8 2 8 -9 -2 -20 -16 -23 -25 -4 -15 6 4 2
-3 -9 -16 -19 -19 -24 -20 -42 -9 -17 11 -24 11 -34 1 -6 -6 -21 -12 -33 -12
-12 0 -25 -4 -31 -8 -5 -5 -31 -21 -59 -36 -46 -25 -44 -20 10 20 11 8 14 12
8 9 -7 -3 -13 -2 -13 4 0 5 8 12 18 14 11 3 7 5 -10 6 -14 0 -28 5 -30 10 -1
5 -12 3 -23 -6 -20 -15 -20 -15 1 -9 14 4 24 2 27 -8 4 -11 0 -14 -15 -11 -12
3 -26 1 -32 -3 -13 -10 -27 -9 -43 1 -25 16 -12 -9 18 -36 21 -19 26 -27 15
-27 -9 0 -16 -3 -16 -8 0 -4 -9 -13 -20 -19 -16 -11 -18 -10 -14 2 4 8 10 15
15 15 5 0 9 7 9 17 0 14 -2 14 -17 1 -20 -16 -31 -17 -52 -4 -10 6 -16 5 -19
-2 -2 -7 -8 -12 -13 -12 -6 0 -7 5 -4 10 3 6 1 10 -5 10 -6 0 -8 -11 -6 -25 4
-23 3 -24 -17 -13 -12 7 -24 13 -27 13 -3 0 -15 6 -26 13 -12 6 -24 9 -26 6
-3 -3 -8 2 -11 10 -7 18 20 36 43 29 13 -4 13 -3 1 6 -10 6 -21 6 -35 -2 -12
-6 -27 -10 -33 -9 -7 2 -13 -2 -13 -8 0 -5 6 -10 13 -10 8 0 7 -4 -3 -11 -12
-8 -12 -9 5 -7 11 2 20 -2 20 -9 0 -6 4 -15 9 -20 5 -4 6 -3 2 4 -3 6 -2 14 4
18 5 3 10 1 10 -5 0 -6 4 -9 9 -5 5 3 12 1 16 -5 3 -5 2 -10 -4 -10 -5 0 -9
-9 -8 -20 1 -23 8 -25 25 -8 7 7 12 8 12 3 0 -6 5 -3 10 5 6 10 10 11 10 3 0
-7 9 -13 19 -13 14 0 19 6 16 18 -2 12 3 18 16 19 10 1 19 -2 19 -8 0 -5 -8
-9 -17 -10 -10 0 -13 -3 -6 -5 8 -4 6 -11 -8 -25 -21 -21 -34 -25 -23 -7 5 8
2 9 -9 5 -9 -3 -19 -2 -22 4 -4 5 -11 7 -16 3 -6 -3 -5 -12 3 -22 7 -10 8 -14
4 -10 -5 4 -16 2 -24 -5 -13 -10 -15 -9 -9 5 3 9 -1 22 -9 29 -19 16 -28 6
-16 -18 5 -10 8 -26 7 -36 -3 -14 0 -16 10 -7 8 7 15 7 19 1 4 -5 -3 -12 -14
-16 -11 -3 -20 -11 -20 -16 0 -5 -3 -8 -7 -7 -5 2 -20 -9 -35 -22 -61 -55 -70
-61 -85 -56 -13 5 -14 4 -3 -9 7 -8 9 -16 4 -17 -5 0 -13 -2 -19 -2 -14 -2
-90 -79 -87 -88 1 -5 -4 -8 -12 -8 -8 0 -16 -7 -20 -15 -7 -19 1 -19 21 0 8 8
19 13 24 9 5 -3 8 -2 7 3 -3 10 49 63 56 56 2 -3 12 7 22 22 10 15 23 24 31
21 8 -3 12 -2 9 3 -3 4 6 13 19 19 14 7 25 16 25 22 0 6 5 8 10 5 5 -3 10 -1
10 4 0 6 7 11 15 11 8 0 15 5 15 11 0 6 7 9 15 5 9 -3 15 0 15 9 0 18 12 19
27 4 7 -7 12 -6 17 6 4 10 2 14 -5 9 -7 -4 -10 -2 -8 5 3 7 8 12 13 11 4 -1
22 11 38 27 17 15 28 23 24 16 -3 -6 0 -14 6 -16 9 -4 7 -6 -3 -6 -9 -1 -23
-9 -30 -18 -8 -10 -9 -14 -2 -10 6 4 14 3 18 -3 5 -9 -7 -14 -27 -11 -8 1 -5
-20 6 -38 5 -8 5 -12 0 -9 -9 5 -42 -24 -46 -39 -3 -14 -38 -68 -38 -59 0 5
-9 1 -20 -9 -11 -10 -20 -24 -20 -32 0 -7 -4 -13 -8 -13 -5 0 -9 -6 -9 -14 0
-7 9 -12 21 -11 12 0 28 -4 36 -9 13 -10 13 -9 1 7 -8 9 -11 20 -8 24 4 3 -1
12 -11 20 -15 12 -14 12 9 4 22 -8 26 -7 25 7 0 9 4 16 11 15 6 -2 14 6 18 16
6 19 35 38 35 23 0 -4 20 -7 45 -8 36 -1 45 3 43 15 -2 9 2 16 7 16 6 0 16 4
23 8 7 5 12 4 12 -2 0 -18 -5 -26 -12 -24 -5 2 -8 -1 -8 -6 0 -5 -9 -13 -21
-16 -19 -6 -20 -7 -2 -20 18 -14 37 -10 28 5 -3 5 -1 11 5 15 5 3 10 1 10 -6
0 -8 5 -7 16 2 15 12 16 11 10 -11 -6 -21 -5 -22 4 -7 6 9 16 17 23 17 7 0 6
-4 -3 -10 -8 -5 -10 -10 -5 -10 6 0 3 -4 -4 -9 -9 -6 -22 -6 -34 1 -11 5 -17
6 -14 1 3 -5 -3 -10 -14 -10 -10 -1 -19 3 -19 9 0 7 -5 6 -14 -1 -11 -10 -16
-8 -21 8 -8 25 -24 28 -21 4 2 -10 -3 -23 -11 -28 -12 -9 -11 -11 6 -11 11 0
18 3 15 7 -2 4 7 7 21 7 13 -1 23 -5 22 -10 -1 -6 5 -13 13 -15 12 -4 12 -3 2
5 -11 8 -11 10 1 15 19 7 37 -11 30 -31 -5 -10 -2 -13 6 -8 7 5 10 14 7 22 -4
9 2 14 15 14 20 0 41 37 31 54 -3 5 2 7 11 3 9 -3 19 -1 23 5 4 6 3 8 -4 4 -6
-3 -13 -2 -16 3 -7 10 12 9 29 -1 6 -3 15 0 22 7 10 11 10 15 0 18 -9 4 -9 6
0 6 21 2 23 -16 3 -34 -11 -10 -20 -15 -20 -11 0 13 -27 -19 -44 -52 -10 -19
-21 -30 -28 -26 -7 4 -8 3 -4 -5 10 -15 -13 -43 -27 -34 -5 3 -7 2 -4 -4 3 -5
0 -21 -7 -35 -11 -21 -11 -26 -1 -24 7 1 19 7 27 14 8 6 19 8 23 4 5 -4 6 -2
2 3 -3 6 1 19 9 29 11 16 16 17 29 6 9 -7 15 -8 15 -2 0 6 -6 12 -12 15 -7 2
-9 8 -5 13 5 5 17 -2 28 -16 l20 -25 -12 25 c-18 35 -19 49 -4 44 8 -3 19 5
25 18 11 22 10 22 -4 4 -9 -11 -16 -15 -16 -9 0 17 38 45 50 38 9 -6 9 -10 -1
-16 -9 -5 -3 -7 16 -5 17 2 34 -2 38 -8 6 -7 7 -6 5 3 -2 8 -12 15 -22 17 -29
4 -42 22 -27 36 10 11 17 7 37 -17 25 -31 32 -28 14 6 -6 11 -7 19 -3 18 21
-3 24 2 12 19 -11 14 -10 14 8 -2 22 -18 22 -43 1 -30 -6 4 -8 -1 -4 -14 5
-14 1 -27 -13 -41 -10 -10 -19 -21 -18 -23 1 -2 -3 2 -9 9 -19 22 -25 14 -8
-12 15 -23 15 -26 -5 -51 -11 -14 -18 -30 -15 -35 3 -5 1 -9 -5 -9 -6 0 -13
-11 -17 -25 -3 -14 -11 -22 -18 -19 -6 3 -3 -1 7 -9 14 -11 15 -16 5 -20 -8
-3 -8 -6 -2 -6 6 -1 18 7 25 16 10 11 10 14 2 9 -18 -10 -16 14 2 38 8 10 12
23 9 27 -3 5 2 9 10 9 9 0 16 7 16 15 0 9 7 18 15 21 8 4 15 13 15 21 0 8 5
11 11 8 6 -4 10 -1 8 6 -3 27 1 40 11 34 6 -3 10 -1 10 5 0 6 7 18 15 27 8 8
13 18 10 23 -3 5 4 11 15 15 12 4 17 11 13 18 -3 6 8 0 26 -12 25 -18 35 -21
44 -12 9 10 8 16 -7 27 -11 7 -17 17 -13 21 4 3 16 -2 27 -12 16 -14 20 -15
20 -4 0 8 -6 21 -12 28 -10 11 -8 11 9 0 16 -10 21 -19 17 -34 -4 -11 -11 -22
-15 -23 -5 -2 -7 -7 -4 -12 7 -12 -21 -61 -30 -52 -5 4 -5 2 -2 -5 10 -16 -3
-44 -16 -36 -5 3 -7 1 -3 -5 3 -6 2 -14 -4 -17 -8 -5 -7 -11 1 -21 10 -12 9
-13 -5 -8 -9 4 -16 3 -15 -2 1 -5 0 -11 -1 -14 -1 -3 -3 -18 -5 -35 -1 -16 -7
-31 -14 -33 -6 -2 -11 -8 -11 -14 0 -6 7 -7 16 -4 8 3 13 2 10 -2 -3 -5 0 -9
7 -9 7 0 12 13 11 34 -1 18 2 33 7 33 5 0 8 3 8 8 -3 18 2 33 9 28 4 -2 9 3
10 12 4 46 9 64 18 70 5 4 18 24 28 44 10 21 22 36 26 33 3 -2 6 6 6 18 -1 13
4 21 12 19 8 -1 11 2 8 7 -5 8 49 91 60 91 7 0 -4 -20 -24 -42 -8 -10 -10 -18
-4 -18 6 0 12 6 15 13 3 9 7 9 20 -2 10 -7 17 -9 17 -3 0 6 -4 12 -9 14 -5 2
2 17 17 33 15 17 23 22 19 12 -4 -10 -7 -23 -7 -28 0 -6 -5 -7 -12 -3 -7 5 -8
3 -4 -5 10 -16 47 15 40 34 -3 7 -1 16 5 20 6 3 12 0 13 -7 4 -36 3 -44 -7
-50 -6 -5 -5 -8 3 -8 7 0 10 -5 6 -12 -4 -7 -3 -8 5 -4 6 4 9 12 6 17 -4 5 -1
9 4 9 6 0 10 3 10 8 -4 26 3 44 15 39 11 -4 13 -1 9 10 -5 13 -2 15 15 11 12
-4 25 -2 28 3 3 5 10 6 16 3 7 -4 8 -2 4 5 -6 9 -11 9 -23 -1 -15 -12 -15 -11
-2 9 13 21 14 21 34 5 11 -9 15 -10 8 -3 -9 11 -9 17 3 28 8 8 11 20 7 26 -3
7 -2 8 3 4 10 -9 11 -14 13 -53 0 -14 5 -22 11 -19 6 4 7 11 4 17 -5 8 -1 9
11 4 15 -5 16 -4 6 8 -10 11 -7 16 16 25 21 9 22 10 5 7 -18 -3 -21 -1 -13 8
6 7 10 15 8 17 -1 2 0 3 2 2 2 -2 11 3 19 10 9 6 13 7 10 2 -4 -6 0 -19 8 -29
12 -17 13 -16 10 19 -2 31 0 35 9 21 13 -17 30 -23 20 -6 -4 6 -2 17 4 24 15
17 61 -2 54 -21 -3 -8 3 -13 15 -13 11 0 22 -5 24 -12 3 -7 13 -5 33 8 28 18
29 18 22 0 -6 -14 -4 -17 10 -12 15 5 15 3 -2 -10 -14 -12 -15 -15 -4 -11 9 3
23 0 30 -6 10 -10 11 -9 2 3 -6 9 -7 23 -2 35 4 11 8 16 8 11 1 -5 8 -3 16 4
11 9 15 9 15 1 0 -6 -6 -14 -14 -17 -9 -3 -12 -12 -9 -21 5 -13 8 -12 15 7 7
18 11 21 20 12 7 -7 19 -12 28 -12 21 0 39 -38 36 -78 -1 -18 2 -33 6 -34 5
-2 10 -13 11 -26 2 -28 9 -28 25 -1 9 14 10 19 2 14 -8 -5 -11 -1 -8 11 2 11
11 18 21 18 9 -1 17 3 17 8 0 6 -9 8 -20 5 -23 -6 -27 8 -5 16 8 4 17 2 21 -4
3 -6 12 -8 20 -5 11 4 11 1 -1 -18 -14 -22 -14 -24 1 -30 10 -4 21 -1 26 6 6
10 12 9 23 -6 12 -16 12 -22 2 -28 -9 -7 -8 -8 3 -7 31 3 50 -1 50 -12 0 -5
-4 -8 -9 -5 -5 3 -11 0 -14 -7 -7 -18 8 -43 17 -29 3 6 0 13 -6 15 -7 3 -8 6
-3 6 21 1 34 -16 37 -46 1 -17 6 -29 10 -27 4 3 8 0 8 -5 0 -6 5 -11 11 -11 5
0 8 4 5 8 -3 5 -1 22 3 38 5 19 4 38 -6 57 -7 15 -11 27 -8 27 3 0 15 -19 25
-42 11 -24 20 -35 20 -25 0 9 5 17 11 17 6 0 9 -7 5 -15 -3 -8 -1 -15 4 -15 6
0 10 7 10 16 0 8 5 12 10 9 6 -4 8 -11 5 -16 -8 -12 28 2 37 15 5 8 8 7 8 -1
0 -6 -5 -15 -10 -18 -6 -4 -8 -11 -5 -16 3 -5 -1 -6 -9 -3 -9 3 -16 1 -16 -5
0 -14 23 -14 37 0 8 8 17 -1 33 -36 12 -26 19 -53 16 -61 -3 -8 -2 -13 3 -10
8 5 22 -38 25 -76 2 -27 16 -34 15 -7 0 13 1 41 3 61 2 21 0 39 -4 40 -4 2 -9
12 -11 23 -1 11 -7 26 -11 34 -7 11 -6 12 5 5 8 -5 22 -7 32 -6 9 2 17 -3 17
-10 0 -23 53 -16 56 7 2 11 8 21 14 23 5 2 8 8 4 13 -3 5 6 4 20 -2 14 -7 22
-17 19 -22 -5 -8 -8 -7 -11 1 -2 7 -8 12 -13 12 -6 0 -7 -5 -4 -10 4 -6 3 -9
-2 -8 -4 2 -9 -1 -11 -7 -1 -5 12 -14 29 -18 24 -6 36 -4 50 9 10 9 16 21 13
25 -8 13 -24 11 -22 -2 2 -6 -4 -14 -12 -16 -10 -3 -11 -2 -4 4 6 4 10 18 9
31 -1 20 0 21 15 7 9 -8 20 -12 25 -8 4 5 5 2 1 -4 -4 -7 -2 -13 3 -13 6 0 11
-5 11 -10 0 -6 -5 -9 -11 -8 -6 2 -13 -2 -16 -8 -2 -7 5 -10 21 -7 16 3 23 10
19 17 -3 6 -2 7 3 3 5 -5 9 -14 9 -20 1 -7 6 -11 13 -9 7 1 11 -2 10 -7 -2 -5
10 -23 25 -40 15 -17 25 -37 21 -43 -4 -7 -3 -8 4 -4 7 4 12 1 12 -7 0 -8 13
-29 29 -46 15 -16 26 -33 22 -37 -3 -4 0 -4 7 0 8 5 9 13 2 25 -5 10 -7 21 -5
25 3 3 2 4 -1 1 -4 -2 -19 15 -35 38 -19 29 -25 45 -18 53 7 8 6 15 -2 20 -8
5 -10 3 -5 -7 4 -8 -2 -3 -13 11 -11 14 -21 35 -21 48 0 12 -5 21 -12 20 -6
-2 -13 9 -14 24 -2 20 1 25 12 21 8 -3 14 -11 14 -19 0 -8 6 -11 16 -7 14 5
13 9 -7 24 -13 10 -29 17 -36 14 -7 -2 -10 2 -6 11 3 7 0 14 -5 14 -16 0 -24
-18 -12 -25 6 -4 8 -10 5 -16 -3 -5 -19 7 -35 25 -31 35 -39 53 -18 40 8 -5 9
-2 5 10 -4 10 -3 15 4 11 5 -4 7 -15 4 -25 -3 -10 -1 -21 5 -25 5 -3 10 2 11
12 0 11 3 13 6 5 2 -6 9 -10 14 -6 12 7 87 -47 95 -68 3 -10 11 -18 19 -18 13
0 64 -40 119 -95 16 -16 27 -23 24 -15 -21 49 -36 70 -60 85 -16 9 -28 23 -28
31 0 8 -5 14 -11 14 -13 0 -39 25 -39 39 0 5 -5 13 -12 17 -7 5 -8 3 -3 -7 8
-12 6 -12 -8 0 -9 7 -14 18 -11 23 4 6 0 14 -7 19 -12 7 -12 9 0 9 11 0 11 3
1 15 -11 13 -10 14 2 10 8 -3 21 1 28 10 11 13 10 14 -5 9 -14 -6 -16 -4 -10
7 5 8 -4 3 -18 -10 -15 -13 -24 -27 -22 -32 10 -15 -12 -18 -31 -4 -15 11 -17
16 -6 26 10 11 12 10 12 -1 0 -16 15 -4 15 13 1 7 6 11 13 9 17 -3 15 25 -2
31 -10 4 -13 1 -9 -9 6 -16 -13 -20 -20 -4 -3 6 -4 5 -3 -2 3 -14 -17 -38 -31
-38 -4 0 -20 11 -35 24 -14 14 -29 22 -32 19 -3 -4 -6 2 -6 13 0 15 -2 16 -10
4 -8 -12 -11 -12 -28 3 -10 9 -24 17 -30 17 -6 0 -14 4 -17 10 -4 6 1 7 12 4
14 -5 15 -4 4 4 -11 8 -23 6 -44 -5 -16 -8 -27 -10 -23 -5 3 5 -8 15 -25 22
-17 7 -28 18 -25 25 7 18 -19 12 -43 -9 -12 -11 -21 -14 -26 -6 -3 5 -11 8
-16 4 -5 -3 -7 -10 -3 -15 3 -5 10 -7 15 -4 5 4 9 1 9 -4 0 -13 -13 -14 -24
-3 -4 4 -12 8 -17 8 -5 1 -12 2 -15 3 -4 0 -1 8 6 16 11 13 10 14 -2 10 -9 -4
-28 5 -44 21 -16 15 -23 24 -15 19 10 -5 12 -4 7 3 -4 7 -13 12 -21 12 -7 0
-17 9 -20 20 -5 16 -10 18 -26 10 -10 -6 -19 -18 -19 -27 0 -9 3 -14 6 -10 6
6 17 -3 43 -36 11 -14 11 -20 1 -32 -11 -13 -18 -8 -49 32 -20 25 -35 50 -33
55 1 5 -5 8 -14 6 -9 -2 -19 2 -21 8 -2 7 7 12 21 12 14 0 23 -4 20 -9 -3 -5
2 -9 10 -9 23 0 29 18 7 25 -10 3 -21 16 -25 28 -4 17 -8 19 -18 9 -10 -10
-10 -15 2 -22 9 -6 10 -10 3 -10 -7 0 -16 8 -22 17 -7 14 -12 15 -24 5 -12
-10 -16 -10 -20 2 -4 9 -1 13 7 10 7 -3 21 4 31 16 21 23 14 28 -9 5 -17 -17
-46 -10 -46 11 0 8 -3 14 -8 14 -11 0 -34 59 -34 87 0 21 -2 23 -10 10 -12
-22 -18 -21 -50 8 -18 16 -28 20 -31 12 -5 -11 -11 17 -8 36 0 4 -13 7 -29 7
-18 0 -33 6 -36 15 -4 8 -10 13 -14 10 -4 -2 -7 3 -6 13 0 9 21 36 46 59 35
32 51 58 70 110 13 37 28 71 33 74 5 3 8 9 8 13 -3 20 0 26 11 20 6 -4 8 -3 5
3 -8 13 22 55 33 48 5 -3 7 4 5 15 -2 11 0 20 5 20 5 0 11 9 15 19 4 13 12 18
22 14 11 -4 14 -2 9 5 -6 11 5 16 26 13 4 0 5 5 2 12 -3 8 12 31 34 53 21 21
48 53 60 71 26 37 30 68 4 37 -26 -33 -72 -60 -72 -43 0 11 -2 11 -10 -1 -5
-8 -10 -10 -11 -5 -1 6 -3 15 -4 20 -2 6 -3 16 -4 23 0 6 -10 12 -21 12 -11 0
-20 4 -20 9 0 4 -11 6 -25 3 -14 -2 -31 0 -38 6 -13 10 -83 9 -94 -2 -3 -3
-17 -6 -30 -6 -13 0 -23 -4 -23 -9 0 -10 -72 -7 -90 4 -7 4 -31 10 -54 12 -23
3 -45 9 -50 13 -5 5 -17 3 -27 -3 -15 -9 -24 -9 -40 1 -12 8 -18 9 -15 4 3 -5
-8 -12 -24 -14 -20 -3 -27 -1 -21 6 14 18 22 48 11 41 -6 -3 -10 -2 -10 4 0 5
-10 11 -22 13 -16 2 -23 10 -24 26 -1 12 3 22 7 22 12 0 11 27 -1 35 -6 4 -7
-1 -3 -11 4 -12 3 -15 -5 -10 -8 4 -9 21 -6 44 4 20 6 43 5 50 0 6 -2 18 -3
26 -1 8 -9 13 -18 11 -9 -2 -23 1 -30 5 -11 7 -11 11 -1 24 8 9 18 16 23 16 6
0 5 -7 -2 -15 -7 -9 -10 -18 -7 -22 4 -3 9 2 13 11 3 9 10 14 14 11 5 -3 12 0
16 6 4 7 3 9 -3 6 -12 -8 -36 17 -26 26 3 4 1 7 -5 7 -7 0 -12 -6 -12 -14z
m16 -79 c6 2 14 -3 18 -12 4 -11 2 -14 -7 -8 -17 11 -38 13 -32 3 3 -5 1 -11
-5 -15 -9 -6 -15 17 -10 40 1 6 -2 6 -6 2 -12 -12 -13 -60 -1 -75 15 -19 2
-25 -16 -8 -8 8 -18 12 -22 8 -5 -4 -6 0 -2 10 6 17 -6 19 -33 5 -8 -5 5 10
29 32 38 36 46 40 60 27 9 -7 21 -12 27 -9z m4 -37 c0 -5 -6 -10 -12 -10 -9 0
-8 -4 2 -10 17 -11 10 -13 -14 -4 -12 5 -13 9 -3 20 14 16 27 18 27 4z m-56
-66 c3 -8 2 -12 -4 -9 -6 3 -10 10 -10 16 0 14 7 11 14 -7z m69 -29 c4 -8 3
-16 -1 -19 -4 -3 -9 4 -9 15 -2 23 3 25 10 4z m55 -80 c-3 -3 -9 2 -12 12 -6
14 -5 15 5 6 7 -7 10 -15 7 -18z m-70 -67 c-17 -25 -30 -27 -36 -6 -2 9 0 8 7
-2 10 -14 13 -12 10 6 -1 6 21 23 30 24 2 0 -3 -10 -11 -22z m406 -634 c9 -24
2 -26 -12 -4 -7 11 -8 20 -3 20 5 0 12 -7 15 -16z m-211 -37 c-3 -4 -11 -3
-19 4 -7 6 -11 15 -8 20 3 5 11 3 18 -4 8 -6 12 -16 9 -20z m-24 -5 c8 -14 6
-18 -10 -19 -13 -1 -19 5 -19 18 0 24 16 25 29 1z m313 -17 c3 -13 2 -22 -2
-20 -11 7 -20 45 -10 45 4 0 10 -11 12 -25z m-24 -10 c-3 -3 -9 2 -12 12 -6
14 -5 15 5 6 7 -7 10 -15 7 -18z m67 -9 c0 -13 -3 -22 -7 -20 -4 3 -11 -4 -17
-13 -10 -17 -10 -17 -11 0 0 9 4 17 9 17 5 0 11 9 14 20 7 27 12 25 12 -4z
m-351 -11 c3 -8 1 -15 -4 -15 -6 0 -10 7 -10 15 0 8 2 15 4 15 2 0 6 -7 10
-15z m-4 -29 c0 -3 -4 -8 -10 -11 -5 -3 -10 -1 -10 4 0 6 5 11 10 11 6 0 10
-2 10 -4z m304 -22 c3 -8 2 -12 -4 -9 -6 3 -10 10 -10 16 0 14 7 11 14 -7z
m-454 -67 c0 -2 -10 -12 -21 -23 -22 -19 -22 -19 -10 4 10 18 31 31 31 19z
m-676 -46 c3 -5 -6 -11 -19 -14 -14 -2 -28 0 -32 6 -3 5 -1 7 5 3 6 -3 13 -2
17 4 8 12 22 13 29 1z m119 -22 c-18 -11 -35 -20 -39 -19 -4 1 -10 -2 -13 -7
-3 -4 -16 -16 -27 -26 -20 -16 -22 -16 -28 -2 -4 11 -2 15 6 13 7 -3 21 3 31
13 21 19 76 49 92 49 6 0 -4 -10 -22 -21z m870 -11 c9 -18 13 -36 10 -41 -8
-13 -52 45 -46 60 8 21 20 15 36 -19z m-397 0 c4 -6 3 -8 -3 -5 -6 4 -14 0
-17 -9 -3 -8 -11 -12 -17 -9 -6 5 -4 12 8 21 22 17 20 16 29 2z m467 -24 c-3
-8 -7 -14 -10 -14 -3 0 -3 7 1 15 3 8 1 15 -4 15 -6 0 -10 5 -10 11 0 8 4 8
14 -1 8 -6 12 -18 9 -26z m77 -14 c0 -5 -2 -10 -4 -10 -3 0 -8 5 -11 10 -3 6
-1 10 4 10 6 0 11 -4 11 -10z m-1137 -31 c-4 -12 -11 -18 -20 -15 -8 3 -12 2
-8 -3 3 -5 -7 -18 -23 -29 -24 -18 -30 -19 -52 -6 -14 7 -20 13 -15 13 6 1 17
-4 25 -9 10 -6 20 -3 32 10 21 22 23 34 6 24 -7 -3 0 5 16 20 32 28 47 27 39
-5z m447 6 c-7 -8 -18 -15 -24 -15 -6 0 -2 7 8 15 25 19 32 19 16 0z m81 -8
c-10 -9 -11 -8 -5 6 3 10 9 15 12 12 3 -3 0 -11 -7 -18z m-241 3 c0 -4 -6 -13
-14 -19 -11 -9 -15 -9 -19 1 -4 8 -8 5 -13 -10 -4 -13 -13 -21 -23 -20 -9 2
-15 -3 -13 -11 2 -8 -3 -11 -12 -8 -9 4 -19 -1 -24 -10 -8 -13 -10 -13 -16 3
-4 10 -4 15 0 12 3 -4 29 10 56 31 46 35 78 48 78 31z m1317 -9 c12 -11 23
-18 25 -16 2 2 14 -5 28 -16 l25 -19 -30 10 c-28 9 -29 9 -11 -5 18 -13 18
-15 3 -15 -10 0 -20 6 -23 14 -3 8 -12 12 -20 9 -8 -3 -14 0 -14 6 0 6 -7 11
-16 11 -14 0 -14 -3 -3 -17 12 -17 12 -17 -5 -2 -15 14 -16 19 -4 38 16 26 19
26 45 2z m-1564 -38 c-5 -12 -3 -14 8 -8 12 7 12 6 0 -6 -10 -11 -15 -11 -18
-1 -3 6 -9 12 -14 12 -6 0 -6 -7 0 -18 8 -15 6 -18 -17 -16 -15 1 -29 2 -32 3
-9 2 55 50 67 51 7 0 10 -7 6 -17z m267 7 c-20 -13 -33 -13 -25 0 3 6 14 10
23 10 15 0 15 -2 2 -10z m1448 -34 c12 1 62 -31 62 -39 0 -5 -13 0 -30 10 -16
9 -30 21 -30 26 0 4 -4 6 -9 3 -4 -3 -19 7 -32 22 l-24 27 28 -25 c16 -14 32
-25 35 -24z m-1388 24 c0 -5 -5 -10 -11 -10 -5 0 -7 5 -4 10 3 6 8 10 11 10 2
0 4 -4 4 -10z m-100 -25 c0 -2 -9 -3 -19 -2 -11 0 -18 5 -15 9 4 6 34 0 34 -7z
m1436 -8 c4 -4 -2 -7 -14 -7 -12 0 -22 4 -22 9 0 10 26 9 36 -2z m-406 -6 c0
-6 -4 -13 -10 -16 -5 -3 -10 1 -10 9 0 9 5 16 10 16 6 0 10 -4 10 -9z m-1409
-14 c-7 -7 -14 -8 -21 -1 -6 6 -2 10 12 11 16 2 18 -1 9 -10z m69 3 c0 -5 -5
-10 -11 -10 -5 0 -7 5 -4 10 3 6 8 10 11 10 2 0 4 -4 4 -10z m-106 -38 c3 -5
-1 -9 -9 -9 -8 0 -12 4 -9 9 3 4 7 8 9 8 2 0 6 -4 9 -8z m100 -17 c-4 -8 -12
-15 -18 -15 -16 0 -38 -48 -30 -63 5 -8 2 -8 -7 1 -16 14 -33 16 -24 2 9 -15
-8 -12 -31 5 -20 15 -12 20 29 16 9 -1 17 3 17 8 0 6 -3 10 -7 9 -13 -5 -9 16
6 35 20 22 73 24 65 2z m37 -18 c-6 -8 -8 -17 -4 -21 4 -4 0 -4 -10 0 -17 6
-17 7 0 20 23 17 28 18 14 1z m244 -15 c-3 -3 -11 0 -18 7 -9 10 -8 11 6 5 10
-3 15 -9 12 -12z m1426 6 c1 -7 0 -20 -1 -28 -1 -11 4 -10 21 5 18 15 20 16
10 2 -8 -9 -10 -21 -6 -25 4 -4 10 -1 12 6 6 17 23 15 23 -3 0 -8 -3 -14 -7
-14 -21 3 -33 -2 -27 -13 4 -7 3 -8 -5 -4 -6 4 -9 12 -5 17 3 6 -1 9 -9 7 -9
-2 -15 0 -14 4 1 4 -7 14 -18 23 -13 10 -15 14 -5 13 8 -2 14 3 13 10 -2 6 2
12 7 12 6 0 11 -6 11 -12z m-126 -8 c3 -5 1 -10 -4 -10 -6 0 -11 5 -11 10 0 6
2 10 4 10 3 0 8 -4 11 -10z m274 -4 c11 -14 6 -15 -27 -7 -4 1 8 21 12 21 2 0
9 -6 15 -14z m-1774 -24 c-3 -3 -11 0 -18 7 -9 10 -8 11 6 5 10 -3 15 -9 12
-12z m-23 -24 c-9 -9 -15 -9 -24 0 -9 9 -7 12 12 12 19 0 21 -3 12 -12z m1623
2 c3 -6 -1 -7 -9 -4 -18 7 -21 14 -7 14 6 0 13 -4 16 -10z m85 -40 c0 -5 -2
-10 -4 -10 -3 0 -8 5 -11 10 -3 6 -1 10 4 10 6 0 11 -4 11 -10z"/>
<path d="M2555 1930 c3 -5 8 -10 11 -10 2 0 4 5 4 10 0 6 -5 10 -11 10 -5 0
-7 -4 -4 -10z"/>
<path d="M1487 1695 c-4 -8 -1 -17 5 -21 6 -4 8 -3 4 4 -3 6 2 15 11 21 16 9
16 10 2 11 -9 0 -19 -7 -22 -15z"/>
<path d="M2140 3202 c0 -5 7 -9 15 -9 8 0 15 4 15 9 0 4 -7 8 -15 8 -8 0 -15
-4 -15 -8z"/>
<path d="M2193 3195 c0 -8 4 -12 9 -9 5 3 6 10 3 15 -9 13 -12 11 -12 -6z"/>
<path d="M2000 3197 c0 -4 7 -19 16 -32 13 -20 14 -25 3 -25 -8 -1 -4 -6 8
-13 12 -7 22 -16 23 -22 1 -5 4 -12 7 -15 4 -3 3 0 -1 7 -3 6 -2 14 4 18 5 3
10 -1 10 -9 0 -19 26 -21 37 -3 12 19 14 47 3 47 -6 0 -10 -5 -10 -11 0 -5 -6
-7 -12 -4 -7 4 -5 0 5 -8 10 -8 14 -17 10 -20 -5 -3 -17 5 -27 19 -11 13 -24
24 -30 24 -6 0 -19 12 -28 28 -10 15 -18 23 -18 19z m60 -67 c0 -5 -7 -7 -15
-4 -8 4 -15 8 -15 10 0 2 7 4 15 4 8 0 15 -4 15 -10z"/>
<path d="M1957 3173 c-4 -3 -7 -9 -7 -13 0 -13 37 -50 50 -50 10 0 10 -3 0
-15 -7 -8 -9 -15 -6 -15 4 0 14 7 22 15 9 8 11 15 5 15 -17 0 -63 48 -56 59 7
12 2 15 -8 4z"/>
<path d="M1993 3155 c0 -8 4 -12 9 -9 5 3 6 10 3 15 -9 13 -12 11 -12 -6z"/>
<path d="M1950 3099 c0 -5 5 -7 10 -4 6 3 10 8 10 11 0 2 -4 4 -10 4 -5 0 -10
-5 -10 -11z"/>
<path d="M1959 3073 c-13 -16 -12 -17 4 -4 9 7 17 15 17 17 0 8 -8 3 -21 -13z"/>
<path d="M2035 3071 c-3 -6 3 -14 13 -20 15 -8 18 -6 19 12 0 12 -1 16 -4 10
-3 -7 -9 -13 -14 -13 -6 0 -7 5 -4 10 3 6 4 10 1 10 -3 0 -7 -4 -11 -9z"/>
<path d="M2287 3049 c7 -7 15 -10 18 -7 3 3 -2 9 -12 12 -14 6 -15 5 -6 -5z"/>
<path d="M1936 3037 c3 -10 9 -15 12 -12 3 3 0 11 -7 18 -10 9 -11 8 -5 -6z"/>
<path d="M2027 3039 c7 -7 15 -10 18 -7 3 3 -2 9 -12 12 -14 6 -15 5 -6 -5z"/>
<path d="M1990 3020 c-6 -11 -8 -20 -6 -20 3 0 10 9 16 20 6 11 8 20 6 20 -3
0 -10 -9 -16 -20z"/>
<path d="M2073 3011 c1 -18 19 -22 34 -7 4 4 1 6 -7 4 -8 -1 -14 3 -12 10 1 6
-2 12 -7 12 -6 0 -9 -8 -8 -19z"/>
<path d="M2095 2949 c-4 -6 -5 -12 -2 -15 2 -3 7 2 10 11 7 17 1 20 -8 4z"/>
<path d="M2925 2932 c-12 -8 -14 -47 -3 -57 3 -4 5 1 4 12 -2 10 1 26 6 36 10
19 8 20 -7 9z"/>
<path d="M2873 2895 c0 -8 4 -15 9 -15 4 0 8 4 8 9 0 6 -4 12 -8 15 -5 3 -9
-1 -9 -9z"/>
<path d="M1835 2861 c-3 -5 -2 -12 3 -15 5 -3 9 1 9 9 0 17 -3 19 -12 6z"/>
<path d="M2879 2653 c-13 -16 -12 -17 4 -4 16 13 21 21 13 21 -2 0 -10 -8 -17
-17z"/>
<path d="M2835 2620 c3 -5 8 -10 11 -10 2 0 4 5 4 10 0 6 -5 10 -11 10 -5 0
-7 -4 -4 -10z"/>
<path d="M2336 2562 c-2 -4 -1 -14 4 -22 7 -11 9 -9 7 8 -1 24 -3 26 -11 14z"/>
<path d="M1598 2495 c-3 -3 -72 -6 -154 -8 -140 -2 -149 -3 -152 -22 -2 -12 0
-16 5 -9 10 14 225 15 217 2 -4 -5 4 -4 15 4 18 11 23 11 30 -1 5 -7 11 -9 14
-5 4 7 72 11 72 4 0 -6 325 -6 335 0 26 16 -7 20 -186 23 -94 2 -175 7 -181
10 -6 4 -12 4 -15 2z"/>
<path d="M3233 2492 c-68 -1 -123 -7 -123 -12 0 -13 57 -21 120 -16 30 3 118
8 195 12 77 4 147 11 155 15 14 9 -22 9 -347 1z"/>
<path d="M3605 2490 c-7 -11 19 -20 34 -10 9 5 7 9 -8 13 -12 3 -23 2 -26 -3z"/>
<path d="M3665 2481 c9 -8 105 -11 105 -3 0 4 -25 8 -55 8 -30 0 -53 -2 -50
-5z"/>
<path d="M1245 2470 c-19 -8 -19 -9 3 -9 12 -1 22 4 22 9 0 6 -1 10 -2 9 -2 0
-12 -4 -23 -9z"/>
<path d="M3826 2472 c-3 -5 1 -9 9 -9 8 0 12 4 9 9 -3 4 -7 8 -9 8 -2 0 -6 -4
-9 -8z"/>
<path d="M1198 2463 c7 -3 16 -2 19 1 4 3 -2 6 -13 5 -11 0 -14 -3 -6 -6z"/>
<path d="M1386 2402 c-3 -5 -43 -12 -88 -15 -158 -11 -186 -29 -40 -25 56 2
102 6 102 10 0 4 6 6 13 3 6 -2 71 -6 142 -9 72 -3 157 -12 190 -20 33 -9 74
-15 92 -16 17 0 34 -4 37 -9 3 -4 17 -6 31 -4 13 3 23 9 20 13 -6 10 -88 31
-145 37 -25 3 -52 8 -60 13 -8 4 -53 8 -100 9 -99 3 -168 9 -180 16 -5 3 -11
1 -14 -3z"/>
<path d="M2410 2380 c0 -5 5 -10 11 -10 5 0 7 5 4 10 -3 6 -8 10 -11 10 -2 0
-4 -4 -4 -10z"/>
<path d="M3430 2340 c0 -5 5 -10 11 -10 5 0 7 5 4 10 -3 6 -8 10 -11 10 -2 0
-4 -4 -4 -10z"/>
<path d="M3466 2340 c9 -8 75 -7 80 2 3 4 -15 7 -40 6 -24 -2 -42 -5 -40 -8z"/>
<path d="M1900 2321 c0 -12 27 -22 73 -28 49 -6 48 9 -3 25 -47 14 -70 15 -70
3z"/>
<path d="M3186 2316 c-49 -12 -67 -28 -46 -41 6 -4 16 -3 23 3 7 5 33 15 60
22 26 7 47 17 47 21 0 11 -21 10 -84 -5z"/>
<path d="M2616 2292 c-6 -11 23 -47 31 -38 5 4 0 13 -9 20 -10 7 -15 16 -11
19 3 4 4 7 0 7 -3 0 -8 -3 -11 -8z"/>
<path d="M1815 2272 c-67 -18 -96 -21 -119 -9 -13 6 -16 6 -12 -2 4 -6 4 -11
-1 -12 -4 0 -17 -3 -28 -5 -11 -3 -30 -6 -42 -7 -11 -1 -19 -5 -17 -8 2 -4
-18 -10 -44 -14 -26 -3 -58 -9 -71 -12 -18 -4 -22 -3 -16 7 5 9 4 11 -4 6 -6
-4 -9 -12 -6 -17 4 -5 1 -10 -4 -10 -30 -4 -74 -20 -91 -33 -8 -7 -24 -12 -35
-12 -11 1 -24 -4 -30 -11 -11 -13 -56 -25 -90 -24 -16 0 -17 -2 -5 -9 8 -5 11
-10 5 -10 -5 0 -4 -4 4 -9 9 -6 26 -2 48 10 19 11 45 20 59 21 13 1 24 6 24
11 0 4 3 6 8 4 4 -3 18 0 32 6 79 33 90 35 90 19 0 -8 -3 -12 -6 -9 -4 4 -14
-2 -23 -12 -9 -10 -24 -17 -34 -15 -9 1 -15 -2 -12 -6 3 -5 1 -11 -5 -15 -12
-7 -4 -25 11 -25 6 0 7 5 4 10 -4 6 -3 10 2 9 4 -1 21 1 36 6 21 5 25 10 16
16 -7 4 -10 11 -6 16 5 4 12 1 16 -6 6 -9 11 -10 15 -2 4 6 2 11 -5 11 -8 0
-9 3 0 13 6 8 8 17 4 20 -3 4 1 7 10 7 8 0 24 3 34 7 16 6 16 5 4 -10 -7 -9
-17 -14 -22 -11 -5 3 -9 0 -9 -5 0 -14 17 -14 25 -1 4 6 11 7 17 4 7 -4 8 -2
4 4 -4 6 4 18 16 25 31 19 116 39 130 31 6 -4 8 -3 5 3 -4 6 5 13 21 16 15 3
30 0 34 -6 6 -9 8 -9 8 0 0 7 10 12 23 11 12 -1 38 2 57 5 19 4 4 -4 -35 -17
-38 -14 -73 -22 -77 -20 -4 3 -8 1 -8 -4 0 -4 -23 -14 -51 -21 -28 -8 -63 -20
-78 -27 -14 -8 -32 -14 -38 -14 -7 0 -13 -5 -13 -11 0 -5 -4 -8 -9 -4 -5 3
-12 1 -16 -5 -4 -6 -10 -8 -15 -5 -5 3 -12 1 -15 -5 -4 -6 -41 -27 -83 -47
-41 -19 -82 -42 -91 -50 -8 -9 -29 -22 -46 -29 -16 -7 -25 -13 -20 -14 6 0 0
-6 -11 -13 -12 -6 -33 -20 -48 -31 -22 -16 -29 -16 -44 -5 -15 13 -16 12 -4
-3 11 -14 9 -19 -16 -37 -16 -11 -32 -18 -36 -16 -3 3 -4 2 -2 -1 5 -7 -39
-54 -51 -54 -14 0 -37 -29 -30 -37 9 -8 77 54 69 62 -4 4 3 4 15 1 12 -4 24
-2 28 5 6 9 124 92 159 110 57 31 74 37 82 31 5 -4 6 -3 2 2 -9 10 34 46 54
46 8 0 20 6 27 13 10 8 12 8 7 0 -7 -13 31 -10 43 3 3 4 -2 4 -11 1 -10 -4
-18 -3 -18 1 0 10 114 72 134 72 9 0 16 5 16 10 0 6 8 10 18 10 9 0 37 10 62
22 25 12 48 20 53 20 4 -1 23 4 41 12 19 8 36 12 39 10 2 -2 20 2 39 10 20 9
66 20 104 26 71 12 91 21 80 39 -4 6 -22 5 -53 -4 -26 -8 -49 -12 -51 -10 -3
2 -14 0 -25 -6 -10 -6 -17 -7 -14 -1 13 20 -37 28 -88 14z"/>
<path d="M3391 2282 c-1 -9 -11 -11 -36 -6 -24 4 -41 2 -52 -7 -9 -8 -18 -13
-20 -11 -1 1 -8 2 -15 2 -32 0 14 -20 67 -29 33 -6 74 -13 90 -16 17 -4 44 -8
62 -10 17 -1 35 -5 40 -8 4 -2 17 -1 28 4 18 7 17 8 -6 8 -14 1 -29 4 -33 8
-3 4 -17 8 -29 10 -39 6 -97 24 -97 30 0 3 9 3 20 0 11 -3 20 -1 20 4 0 5 -6
9 -14 9 -8 0 -17 6 -19 13 -4 9 -6 9 -6 -1z"/>
<path d="M3182 2263 c4 -21 68 -29 68 -8 0 8 -8 15 -17 16 -10 0 -26 2 -36 4
-12 2 -17 -2 -15 -12z"/>
<path d="M3576 2261 c-3 -5 3 -11 15 -14 16 -4 18 -3 8 9 -13 16 -16 17 -23 5z"/>
<path d="M3518 2253 c7 -3 16 -2 19 1 4 3 -2 6 -13 5 -11 0 -14 -3 -6 -6z"/>
<path d="M3580 2196 c0 -2 7 -6 15 -10 8 -3 15 -1 15 4 0 6 -7 10 -15 10 -8 0
-15 -2 -15 -4z"/>
<path d="M2332 2174 c-7 -8 -8 -14 -3 -14 10 0 25 19 20 25 -2 1 -10 -3 -17
-11z"/>
<path d="M3633 2177 c0 -9 10 -12 29 -9 16 2 28 0 28 -7 0 -6 6 -8 13 -5 7 2
30 -3 51 -11 21 -9 41 -14 44 -11 3 3 12 0 21 -7 14 -10 14 -10 3 5 -12 15
-106 45 -124 40 -5 -1 -8 3 -8 8 0 6 -13 10 -28 10 -17 0 -29 -5 -29 -13z"/>
<path d="M3005 2140 c-3 -5 -1 -10 4 -10 6 0 11 5 11 10 0 6 -2 10 -4 10 -3 0
-8 -4 -11 -10z"/>
<path d="M3047 2142 c-32 -6 -12 -26 34 -35 68 -13 68 -13 75 -20 4 -4 16 -7
27 -7 11 0 36 -10 56 -22 20 -13 37 -22 39 -20 8 7 33 0 48 -15 10 -10 20 -17
23 -17 11 2 50 -19 47 -25 -2 -3 7 -7 21 -8 14 0 38 -10 54 -22 15 -12 33 -21
39 -21 6 0 8 -5 4 -12 -5 -7 -2 -9 7 -6 21 8 53 -17 43 -34 -6 -11 -5 -11 8 0
13 10 17 10 21 -3 4 -9 13 -12 24 -8 16 6 17 5 3 -12 -8 -10 -10 -16 -3 -12 7
4 24 5 38 1 23 -6 26 -10 20 -33 -6 -24 -5 -25 8 -7 13 18 14 18 34 -7 11 -15
22 -24 24 -22 3 2 24 -11 48 -30 24 -19 47 -32 52 -29 5 3 9 2 8 -3 -3 -18 1
-36 7 -30 4 4 14 -2 23 -12 9 -10 23 -18 33 -18 13 0 14 4 5 19 -7 10 -18 18
-25 18 -9 0 -12 6 -8 16 3 8 2 12 -4 9 -12 -7 -50 16 -50 32 0 6 -8 14 -17 17
-28 9 -104 82 -95 91 4 5 1 5 -6 1 -17 -10 -58 17 -65 43 -3 12 -1 21 4 21 19
0 78 -38 71 -45 -4 -5 -1 -5 5 -1 7 4 37 -5 68 -19 31 -14 60 -25 65 -25 6 0
10 -4 10 -10 0 -5 7 -10 16 -10 9 0 12 -5 8 -12 -4 -7 -3 -10 1 -5 5 4 19 0
33 -9 22 -15 24 -14 20 2 -3 18 -60 52 -205 123 -155 75 -239 104 -293 99 -25
-2 -34 1 -32 10 1 8 -2 11 -7 8 -5 -3 -31 4 -57 16 -27 12 -53 22 -59 23 -5 0
-23 7 -40 14 -84 37 -104 44 -145 55 -25 6 -53 10 -63 8z m512 -183 c41 -12
81 -42 81 -59 0 -6 -4 -10 -10 -10 -5 0 -10 4 -10 8 0 7 -86 55 -102 56 -4 1
-13 7 -20 15 -11 12 -10 13 3 8 10 -3 35 -11 58 -18z"/>
<path d="M2305 2120 c-3 -6 1 -7 9 -4 18 7 21 14 7 14 -6 0 -13 -4 -16 -10z"/>
<path d="M3860 2120 c0 -6 7 -10 15 -10 8 0 15 2 15 4 0 2 -7 6 -15 10 -8 3
-15 1 -15 -4z"/>
<path d="M2175 2109 c-4 -6 -4 -13 -1 -16 3 -4 6 -1 6 6 0 7 5 9 12 5 7 -4 8
-3 4 4 -9 15 -13 15 -21 1z"/>
<path d="M2833 2105 c0 -8 4 -15 9 -15 4 0 8 4 8 9 0 6 -4 12 -8 15 -5 3 -9
-1 -9 -9z"/>
<path d="M2325 2100 c3 -5 8 -10 11 -10 2 0 4 5 4 10 0 6 -5 10 -11 10 -5 0
-7 -4 -4 -10z"/>
<path d="M1315 2090 c14 -6 16 -9 5 -10 -8 -2 -19 -2 -23 -1 -17 3 4 -17 23
-22 11 -3 18 -1 15 3 -8 13 18 18 38 8 16 -8 17 -7 5 11 -14 23 -28 27 -28 9
0 -9 -3 -9 -12 0 -7 7 -19 12 -27 11 -11 0 -10 -3 4 -9z"/>
<path d="M2906 2088 c3 -10 10 -18 15 -18 5 0 8 -3 7 -7 -2 -5 7 -18 20 -30
35 -36 26 -10 -13 33 -19 21 -32 31 -29 22z"/>
<path d="M1522 2079 c-13 -5 -21 -13 -17 -19 3 -5 14 -2 25 8 29 24 28 26 -8
11z"/>
<path d="M2247 2064 c-15 -14 -27 -26 -27 -28 0 -10 50 21 55 33 9 23 0 22
-28 -5z"/>
<path d="M2950 2080 c0 -5 5 -10 11 -10 5 0 7 5 4 10 -3 6 -8 10 -11 10 -2 0
-4 -4 -4 -10z"/>
<path d="M1153 2064 c-3 -9 -12 -13 -22 -9 -11 4 -13 3 -5 -5 12 -13 77 7 68
21 -9 14 -34 10 -41 -7z"/>
<path d="M2130 2070 c0 -6 7 -10 15 -10 8 0 15 2 15 4 0 2 -7 6 -15 10 -8 3
-15 1 -15 -4z"/>
<path d="M2848 2073 c7 -3 16 -2 19 1 4 3 -2 6 -13 5 -11 0 -14 -3 -6 -6z"/>
<path d="M2990 2076 c0 -2 8 -10 18 -17 15 -13 16 -12 3 4 -13 16 -21 21 -21
13z"/>
<path d="M1555 2060 c-3 -5 -1 -10 4 -10 6 0 11 5 11 10 0 6 -2 10 -4 10 -3 0
-8 -4 -11 -10z"/>
<path d="M1753 2054 c0 -8 3 -12 5 -9 3 3 11 0 19 -6 7 -6 13 -7 13 -3 0 5 -8
14 -18 21 -15 9 -19 8 -19 -3z"/>
<path d="M1800 2059 c0 -5 5 -7 10 -4 6 3 10 8 10 11 0 2 -4 4 -10 4 -5 0 -10
-5 -10 -11z"/>
<path d="M1860 2059 c0 -5 5 -7 10 -4 6 3 10 8 10 11 0 2 -4 4 -10 4 -5 0 -10
-5 -10 -11z"/>
<path d="M2062 2055 c-16 -19 -3 -19 22 0 14 11 16 15 5 15 -8 -1 -20 -7 -27
-15z"/>
<path d="M3073 2055 c0 -8 4 -12 9 -9 5 3 6 10 3 15 -9 13 -12 11 -12 -6z"/>
<path d="M3716 2062 c-3 -5 1 -9 9 -9 8 0 12 4 9 9 -3 4 -7 8 -9 8 -2 0 -6 -4
-9 -8z"/>
<path d="M1265 2040 c-3 -5 1 -10 9 -10 9 0 16 5 16 10 0 6 -4 10 -9 10 -6 0
-13 -4 -16 -10z"/>
<path d="M2098 2043 c6 -2 18 -2 25 0 6 3 1 5 -13 5 -14 0 -19 -2 -12 -5z"/>
<path d="M1074 2025 c1 -8 6 -18 11 -22 4 -4 5 -2 1 5 -4 7 -1 12 8 12 9 0 16
5 16 10 0 6 -9 10 -19 10 -11 0 -18 -6 -17 -15z"/>
<path d="M2157 2020 c-8 -11 -17 -17 -20 -13 -4 3 -7 1 -7 -6 0 -21 32 -8 41
17 10 27 5 28 -14 2z"/>
<path d="M1665 2020 c-3 -6 1 -7 9 -4 18 7 21 14 7 14 -6 0 -13 -4 -16 -10z"/>
<path d="M2055 2021 c3 -6 14 -9 25 -8 23 2 17 10 -11 14 -11 2 -18 -1 -14 -6z"/>
<path d="M1031 1994 c0 -11 3 -14 6 -6 3 7 2 16 -1 19 -3 4 -6 -2 -5 -13z"/>
<path d="M1395 2002 c3 -4 22 -7 41 -8 20 -2 33 0 30 3 -3 3 -22 7 -41 8 -20
2 -33 0 -30 -3z"/>
<path d="M1675 2000 c-3 -6 1 -7 9 -4 18 7 21 14 7 14 -6 0 -13 -4 -16 -10z"/>
<path d="M2039 2008 c-6 -25 -6 -38 1 -38 12 0 20 29 10 35 -6 4 -10 5 -11 3z"/>
<path d="M2075 1990 c-3 -5 -1 -10 4 -10 6 0 11 5 11 10 0 6 -2 10 -4 10 -3 0
-8 -4 -11 -10z"/>
<path d="M1005 1980 c-4 -6 -12 -10 -18 -9 -23 2 -52 -13 -69 -35 -13 -18 -13
-23 -3 -23 8 0 13 3 12 6 -1 3 3 8 8 10 6 2 16 12 23 22 7 10 18 16 26 13 7
-3 19 2 26 11 7 8 10 15 7 15 -3 0 -9 -5 -12 -10z"/>
<path d="M1393 1970 c-13 -5 -23 -13 -23 -16 0 -4 3 -4 7 -1 3 4 16 -1 27 -10
15 -13 17 -14 9 -2 -10 12 -10 18 -1 27 14 14 11 14 -19 2z"/>
<path d="M2055 1960 c-3 -5 -1 -10 4 -10 6 0 11 5 11 10 0 6 -2 10 -4 10 -3 0
-8 -4 -11 -10z"/>
<path d="M1465 1931 c1 -9 10 -16 21 -16 10 0 20 7 22 16 2 10 -5 15 -21 15
-17 0 -24 -5 -22 -15z"/>
<path d="M1975 1940 c-4 -6 3 -10 14 -10 25 0 27 6 6 13 -8 4 -17 2 -20 -3z"/>
<path d="M3130 1941 c0 -6 4 -13 10 -16 6 -3 7 1 4 9 -7 18 -14 21 -14 7z"/>
<path d="M1376 1923 c-6 -14 -5 -15 5 -6 7 7 10 15 7 18 -3 3 -9 -2 -12 -12z"/>
<path d="M1913 1925 c0 -8 4 -12 9 -9 5 3 6 10 3 15 -9 13 -12 11 -12 -6z"/>
<path d="M2950 1937 c0 -11 50 -60 56 -54 8 8 -12 34 -38 48 -10 5 -18 8 -18
6z"/>
<path d="M1810 1915 c-7 -8 -16 -12 -21 -9 -5 3 -13 -5 -18 -18 -6 -13 -10
-17 -10 -9 -1 8 -4 12 -7 8 -10 -10 6 -26 21 -21 8 4 12 10 9 15 -3 5 -2 9 3
9 13 1 59 40 47 40 -6 0 -17 -7 -24 -15z"/>
<path d="M2486 1922 c-2 -4 -1 -14 4 -22 7 -11 9 -9 7 8 -1 24 -3 26 -11 14z"/>
<path d="M3071 1914 c6 -7 16 -11 21 -8 11 7 3 17 -18 20 -12 2 -13 -1 -3 -12z"/>
<path d="M1390 1900 c0 -5 5 -10 11 -10 5 0 7 5 4 10 -3 6 -8 10 -11 10 -2 0
-4 -4 -4 -10z"/>
<path d="M3670 1893 c6 -13 18 -23 28 -22 14 0 14 2 2 6 -8 4 -21 13 -28 22
-11 14 -11 13 -2 -6z"/>
<path d="M1250 1881 c0 -6 9 -8 21 -6 14 3 19 0 16 -9 -4 -9 4 -13 24 -12 36
1 36 4 2 18 -40 16 -63 19 -63 9z"/>
<path d="M2510 1871 c0 -6 4 -13 10 -16 6 -3 7 1 4 9 -7 18 -14 21 -14 7z"/>
<path d="M2490 1861 c0 -6 4 -13 10 -16 6 -3 7 1 4 9 -7 18 -14 21 -14 7z"/>
<path d="M2559 1858 c-7 -23 -4 -35 7 -35 11 0 11 3 1 16 -10 12 -9 14 6 8 11
-4 16 -3 12 3 -5 9 -24 14 -26 8z"/>
<path d="M2716 1839 c4 -8 30 -6 38 2 3 3 -5 5 -19 5 -13 0 -22 -3 -19 -7z"/>
<path d="M3360 1840 c0 -5 5 -10 11 -10 5 0 7 5 4 10 -3 6 -8 10 -11 10 -2 0
-4 -4 -4 -10z"/>
<path d="M1291 1830 c3 -31 -1 -41 -13 -34 -7 4 -10 3 -5 -1 12 -14 45 -16 43
-2 -3 19 -27 54 -25 37z"/>
<path d="M3425 1830 c-8 -13 5 -13 25 0 13 8 13 10 -2 10 -9 0 -20 -4 -23 -10z"/>
<path d="M3508 1833 c7 -3 16 -2 19 1 4 3 -2 6 -13 5 -11 0 -14 -3 -6 -6z"/>
<path d="M3641 1824 c0 -11 3 -14 6 -6 3 7 2 16 -1 19 -3 4 -6 -2 -5 -13z"/>
<path d="M3612 1821 c-11 -7 -11 -9 0 -14 9 -3 15 1 15 9 0 8 -1 14 -1 14 -1
0 -7 -4 -14 -9z"/>
<path d="M3780 1820 c-9 -6 -10 -10 -3 -10 6 0 15 5 18 10 8 12 4 12 -15 0z"/>
<path d="M3587 1799 c7 -7 15 -10 18 -7 3 3 -2 9 -12 12 -14 6 -15 5 -6 -5z"/>
<path d="M3461 1791 c-8 -5 -9 -11 -3 -15 5 -3 15 1 22 9 14 16 3 20 -19 6z"/>
<path d="M1235 1774 c12 -9 13 -13 3 -17 -10 -4 -9 -9 4 -20 10 -8 16 -17 13
-20 -3 -4 -2 -5 2 -2 15 12 11 34 -5 28 -10 -4 -14 -3 -10 2 4 4 18 9 30 10
38 4 39 5 34 14 -3 5 -15 7 -26 4 -11 -3 -20 -1 -20 4 0 5 -9 9 -21 9 -18 0
-19 -2 -4 -12z"/>
<path d="M3631 1787 c2 -1 13 -9 24 -17 19 -14 19 -14 6 3 -7 9 -18 17 -24 17
-6 0 -8 -1 -6 -3z"/>
<path d="M3693 1770 c5 -29 13 -33 13 -5 0 14 -4 25 -8 25 -4 0 -7 -9 -5 -20z"/>
<path d="M3974 1768 c-4 -6 -3 -8 4 -4 6 3 16 1 24 -6 35 -34 48 -41 48 -27
-1 20 -67 52 -76 37z"/>
<path d="M953 1746 c-12 -13 -19 -27 -16 -30 8 -8 43 17 43 32 0 7 5 10 12 6
7 -4 8 -3 4 4 -11 17 -20 15 -43 -12z"/>
<path d="M3600 1740 c18 -12 30 -13 30 -2 0 4 -10 9 -22 9 -18 2 -20 0 -8 -7z"/>
<path d="M3680 1735 c14 -17 13 -18 -2 -12 -10 3 -20 2 -23 -3 -5 -8 41 -7 50
2 2 2 -6 10 -18 17 -21 13 -21 13 -7 -4z"/>
<path d="M3781 1716 c2 -2 15 -9 29 -15 24 -11 24 -11 6 3 -16 13 -49 24 -35
12z"/>
<path d="M2855 1700 c-3 -5 -1 -10 4 -10 6 0 11 5 11 10 0 6 -2 10 -4 10 -3 0
-8 -4 -11 -10z"/>
<path d="M3740 1702 c0 -5 7 -9 15 -9 8 0 15 4 15 9 0 4 -7 8 -15 8 -8 0 -15
-4 -15 -8z"/>
<path d="M1306 1674 c-6 -15 -4 -15 11 -3 10 7 20 15 22 16 2 2 -3 3 -11 3 -9
0 -19 -7 -22 -16z"/>
<path d="M2095 1681 c-3 -5 -2 -12 3 -15 5 -3 9 1 9 9 0 17 -3 19 -12 6z"/>
<path d="M2136 1673 c-6 -14 -5 -15 5 -6 7 7 10 15 7 18 -3 3 -9 -2 -12 -12z"/>
<path d="M3775 1680 c-3 -6 1 -7 9 -4 18 7 21 14 7 14 -6 0 -13 -4 -16 -10z"/>
<path d="M2188 1673 c7 -3 16 -2 19 1 4 3 -2 6 -13 5 -11 0 -14 -3 -6 -6z"/>
<path d="M3710 1676 c0 -2 8 -10 18 -17 15 -13 16 -12 3 4 -13 16 -21 21 -21
13z"/>
<path d="M3625 1660 c4 -6 11 -8 16 -5 14 9 11 15 -7 15 -8 0 -12 -5 -9 -10z"/>
<path d="M1338 1653 c6 -2 10 -9 7 -14 -4 -5 1 -6 9 -3 20 8 11 24 -12 23 -11
0 -12 -2 -4 -6z"/>
<path d="M1246 1642 c-3 -5 1 -9 9 -9 8 0 12 4 9 9 -3 4 -7 8 -9 8 -2 0 -6 -4
-9 -8z"/>
<path d="M2160 1631 c0 -6 4 -13 10 -16 6 -3 7 1 4 9 -7 18 -14 21 -14 7z"/>
<path d="M3947 1620 c10 -11 19 -20 21 -20 1 0 -2 9 -8 20 -6 11 -15 20 -20
20 -6 0 -2 -9 7 -20z"/>
<path d="M1735 1600 c3 -5 11 -10 16 -10 6 0 7 5 4 10 -3 6 -11 10 -16 10 -6
0 -7 -4 -4 -10z"/>
<path d="M1890 1602 c0 -4 10 -9 22 -9 18 -2 20 0 8 7 -18 12 -30 13 -30 2z"/>
<path d="M3546 1597 c3 -10 9 -15 12 -12 3 3 0 11 -7 18 -10 9 -11 8 -5 -6z"/>
<path d="M3123 1587 c0 -7 9 -14 20 -14 11 -1 18 -1 16 0 -2 2 -11 8 -20 15
-12 9 -16 9 -16 -1z"/>
<path d="M1270 1575 c5 -7 7 -15 3 -18 -3 -4 -1 -7 5 -7 6 0 10 8 9 18 0 10
-7 19 -14 19 -9 0 -10 -4 -3 -12z"/>
<path d="M3580 1586 c0 -2 8 -10 18 -17 15 -13 16 -12 3 4 -13 16 -21 21 -21
13z"/>
<path d="M1852 1571 c-11 -7 -11 -9 0 -14 9 -3 15 1 15 9 0 8 -1 14 -1 14 -1
0 -7 -4 -14 -9z"/>
<path d="M1920 1571 c0 -7 -5 -9 -12 -5 -7 5 -8 3 -3 -5 5 -9 10 -10 18 -2 6
6 8 14 4 18 -4 3 -7 1 -7 -6z"/>
<path d="M3055 1569 c-4 -6 -5 -12 -2 -15 2 -3 7 2 10 11 7 17 1 20 -8 4z"/>
<path d="M3325 1553 c-11 -25 -15 -46 -7 -38 4 4 7 12 7 18 0 7 8 11 18 11 14
-2 15 1 6 12 -15 18 -15 18 -24 -3z"/>
<path d="M2975 1549 c-4 -6 -5 -12 -2 -15 2 -3 7 2 10 11 7 17 1 20 -8 4z"/>
<path d="M3470 1545 c0 -8 4 -15 10 -15 5 0 7 7 4 15 -4 8 -8 15 -10 15 -2 0
-4 -7 -4 -15z"/>
<path d="M1707 1539 c7 -9 10 -19 6 -22 -3 -4 -1 -7 5 -7 17 0 15 16 -5 31
-16 12 -17 12 -6 -2z"/>
<path d="M2995 1541 c-3 -5 -2 -12 3 -15 5 -3 9 1 9 9 0 17 -3 19 -12 6z"/>
<path d="M3373 1538 c1 -7 -4 -12 -11 -10 -8 1 -11 -2 -7 -8 3 -6 10 -8 15 -5
4 3 10 -1 13 -7 2 -7 4 -1 4 15 0 15 -3 27 -8 27 -5 0 -8 -6 -6 -12z"/>
<path d="M3434 1535 c1 -8 6 -18 11 -22 4 -4 5 -3 2 4 -4 6 -2 13 5 15 8 3 6
6 -4 10 -10 4 -15 2 -14 -7z"/>
<path d="M3616 1533 c-6 -14 -5 -15 5 -6 7 7 10 15 7 18 -3 3 -9 -2 -12 -12z"/>
<path d="M1821 1537 c2 -1 13 -9 24 -17 19 -14 19 -14 6 3 -7 9 -18 17 -24 17
-6 0 -8 -1 -6 -3z"/>
<path d="M3495 1520 c-3 -5 -1 -10 4 -10 6 0 11 5 11 10 0 6 -2 10 -4 10 -3 0
-8 -4 -11 -10z"/>
<path d="M3495 1491 c-3 -5 -2 -12 3 -15 5 -3 9 1 9 9 0 17 -3 19 -12 6z"/>
<path d="M3313 1475 c0 -8 4 -12 9 -9 5 3 6 10 3 15 -9 13 -12 11 -12 -6z"/>
<path d="M1213 1435 c-18 -28 -19 -34 -6 -39 9 -4 13 -1 11 6 -3 7 4 17 15 23
22 11 32 45 14 45 -7 -1 -22 -16 -34 -35z"/>
<path d="M1610 1460 c0 -5 5 -10 10 -10 6 0 10 5 10 10 0 6 -4 10 -10 10 -5 0
-10 -4 -10 -10z"/>
<path d="M2036 1453 c-6 -14 -5 -15 5 -6 7 7 10 15 7 18 -3 3 -9 -2 -12 -12z"/>
<path d="M3376 1462 c-3 -5 1 -9 9 -9 8 0 12 4 9 9 -3 4 -7 8 -9 8 -2 0 -6 -4
-9 -8z"/>
<path d="M3790 1439 c0 -5 5 -7 10 -4 6 3 10 8 10 11 0 2 -4 4 -10 4 -5 0 -10
-5 -10 -11z"/>
<path d="M1655 1411 c-3 -5 -2 -12 3 -15 5 -3 9 1 9 9 0 17 -3 19 -12 6z"/>
<path d="M1509 1380 c-12 -16 -26 -27 -30 -24 -5 3 -6 -1 -3 -9 3 -8 1 -18 -5
-22 -14 -8 -14 -45 -1 -45 6 0 10 7 10 15 0 8 5 15 11 15 5 0 8 4 5 9 -3 4 8
23 24 41 17 19 30 37 30 42 0 17 -20 7 -41 -22z"/>
<path d="M1575 1400 c-3 -6 1 -7 9 -4 18 7 21 14 7 14 -6 0 -13 -4 -16 -10z"/>
<path d="M1743 1386 c0 -6 6 -17 13 -24 10 -9 12 -7 11 8 -1 21 -24 36 -24 16z"/>
<path d="M2084 1379 c-3 -6 -2 -15 3 -20 5 -5 9 -1 9 11 0 23 -2 24 -12 9z"/>
<path d="M1176 1369 c2 -4 -2 -10 -8 -12 -9 -4 -7 -6 3 -6 9 -1 22 5 29 13 9
12 8 15 -9 13 -11 0 -18 -4 -15 -8z"/>
<path d="M3235 1370 c-3 -5 -1 -10 4 -10 6 0 11 5 11 10 0 6 -2 10 -4 10 -3 0
-8 -4 -11 -10z"/>
<path d="M1910 1330 c-9 -6 -10 -10 -3 -10 6 0 15 5 18 10 8 12 4 12 -15 0z"/>
<path d="M1857 1303 c3 -7 9 -13 13 -13 4 0 10 6 13 13 3 7 -3 13 -13 13 -10
0 -16 -6 -13 -13z"/>
<path d="M2090 1299 c0 -5 5 -7 10 -4 6 3 10 8 10 11 0 2 -4 4 -10 4 -5 0 -10
-5 -10 -11z"/>
<path d="M1437 1271 c-3 -14 0 -21 9 -21 16 0 18 9 5 28 -6 10 -10 9 -14 -7z"/>
<path d="M2475 1180 c3 -5 8 -10 11 -10 2 0 4 5 4 10 0 6 -5 10 -11 10 -5 0
-7 -4 -4 -10z"/>
<path d="M2470 1156 c0 -2 8 -10 18 -17 15 -13 16 -12 3 4 -13 16 -21 21 -21
13z"/>
<path d="M2290 1079 c0 -5 5 -7 10 -4 6 3 10 8 10 11 0 2 -4 4 -10 4 -5 0 -10
-5 -10 -11z"/>
</g>
</svg>
